<svg width="24" height="24" viewBox="0 0 24 24" fill="none" xmlns="http://www.w3.org/2000/svg">
<path d="M22.7352 1.37866H21.966C20.4272 1.37866 19.0927 2.44217 18.7493 3.94214L17.8572 7.8382" stroke="white" stroke-width="2" stroke-linecap="round" stroke-linejoin="round"/>
<path d="M2.60107 9.2144C2.82926 11.6271 3.51354 13.6349 4.08789 14.8755C4.38303 15.5131 4.90154 16.0081 5.58089 16.1872C6.41228 16.4063 7.8426 16.6412 10.154 16.6412C12.4653 16.6412 13.8956 16.4063 14.727 16.1872C15.4064 16.0081 15.9249 15.5131 16.22 14.8755C16.9208 13.3618 17.7852 10.7061 17.7852 7.56623H4.1727C3.26144 7.56623 2.51526 8.30717 2.60107 9.2144Z" stroke="white" stroke-width="2" stroke-linecap="round" stroke-linejoin="round"/>
<path d="M4.58519 21.5912C5.04083 21.5912 5.41019 21.2219 5.41019 20.7662C5.41019 20.3106 5.04083 19.9412 4.58519 19.9412C4.12956 19.9412 3.76019 20.3106 3.76019 20.7662C3.76019 21.2219 4.12956 21.5912 4.58519 21.5912Z" fill="none" stroke="white" stroke-width="2" stroke-linecap="round" stroke-linejoin="round"/>
<path d="M15.3102 21.5912C15.7658 21.5912 16.1352 21.2219 16.1352 20.7662C16.1352 20.3106 15.7658 19.9412 15.3102 19.9412C14.8546 19.9412 14.4852 20.3106 14.4852 20.7662C14.4852 21.2219 14.8546 21.5912 15.3102 21.5912Z" fill="none" stroke="white" stroke-width="2" stroke-linecap="round" stroke-linejoin="round"/>
</svg>
