<svg width="24" height="25" viewBox="0 0 24 25" fill="none" xmlns="http://www.w3.org/2000/svg">
<path d="M11.9003 22.8487C10.7146 22.8487 10.7045 21.986 9.68299 21.25C7.906 19.9698 5.17453 18.4633 2.99971 18.1683C2.60986 18.1252 2.24981 17.9392 1.98905 17.6462C1.72829 17.3532 1.5853 16.974 1.58768 16.5818V3.81003C1.58766 3.58086 1.63729 3.35442 1.73315 3.14627C1.82901 2.93811 1.96882 2.7532 2.14297 2.60424C2.31405 2.458 2.51429 2.34982 2.73039 2.28691C2.94649 2.22399 3.1735 2.20778 3.39635 2.23934C6.67145 2.7829 9.66754 4.4151 11.9003 6.87207V22.8487Z" stroke="white" stroke-width="2" stroke-linecap="round" stroke-linejoin="round"/>
<path d="M11.9003 22.8487C13.086 22.8487 13.096 21.986 14.1175 21.25C15.8945 19.9698 18.626 18.4633 20.8008 18.1683C21.1907 18.1252 21.5507 17.9392 21.8115 17.6462C22.0723 17.3532 22.2152 16.974 22.2129 16.5818V3.81003C22.2129 3.58086 22.1632 3.35442 22.0674 3.14627C21.9715 2.93811 21.8317 2.7532 21.6576 2.60424C21.4865 2.458 21.2862 2.34982 21.0701 2.28691C20.854 2.22399 20.627 2.20778 20.4042 2.23934C17.1291 2.7829 14.133 4.4151 11.9003 6.87207V22.8487Z" fill="none" stroke="white" stroke-width="2" stroke-linecap="round" stroke-linejoin="round"/>
</svg>
