<svg width="24" height="25" viewBox="0 0 24 25" fill="none" xmlns="http://www.w3.org/2000/svg">
<path d="M13.0129 12.536C13.0129 13.3539 12.8983 14.5053 12.7801 15.4755C12.6597 16.4643 11.6704 17.0976 10.7585 16.6968C9.08919 15.9629 7.55065 14.8743 6.47383 13.2911C6.16365 12.835 6.16362 12.237 6.47378 11.7809C7.55052 10.1976 9.08911 9.10904 10.7584 8.37521C11.6702 7.97436 12.6595 8.60765 12.78 9.5964C12.8983 10.5666 13.0129 11.718 13.0129 12.536Z" stroke="white" stroke-width="2.475" stroke-linecap="round" stroke-linejoin="round"/>
<path d="M17.2957 7.80869C17.2684 6.95152 17.2339 6.10448 17.1923 5.2688C17.1169 3.7523 15.8391 2.50684 14.1689 2.38796C12.6511 2.27992 11.0878 2.22351 9.49101 2.22351C7.89423 2.22351 6.33087 2.27992 4.81304 2.38796C3.14285 2.50684 1.86513 3.7523 1.78969 5.26881C1.67318 7.61097 1.61182 10.0424 1.61182 12.536C1.61182 15.0297 1.67318 17.461 1.78969 19.8032C1.86513 21.3197 3.14285 22.5652 4.81304 22.6841C6.33087 22.7921 7.89423 22.8485 9.49101 22.8485C11.0878 22.8485 12.6511 22.7921 14.169 22.6841C15.8391 22.5652 17.1169 21.3197 17.1923 19.8032C17.2339 18.9676 17.2684 18.1205 17.2957 17.2634" stroke="white" stroke-width="2.475" stroke-linecap="round"/>
<path d="M21.4889 12.536L13.0129 12.536" stroke="white" stroke-width="2.475" stroke-linecap="round" stroke-linejoin="round"/>
</svg>
