<svg width="24" height="25" viewBox="0 0 24 25" fill="none" xmlns="http://www.w3.org/2000/svg">
<path d="M15.4827 12.6852C15.4827 13.5031 15.5973 14.6545 15.7155 15.6247C15.836 16.6135 16.8253 17.2468 17.7371 16.8459C19.4064 16.1121 20.945 15.0234 22.0218 13.4402C22.332 12.9842 22.332 12.3861 22.0218 11.9301C20.9451 10.3468 19.4065 9.25821 17.7372 8.52438C16.8254 8.12353 15.8361 8.75682 15.7156 9.74557C15.5973 10.7158 15.4827 11.8672 15.4827 12.6852Z" stroke="white" stroke-width="2" stroke-linecap="round" stroke-linejoin="round"/>
<path d="M13.2687 5.2688C13.2132 3.7523 12.2732 2.50684 11.0444 2.38796C9.92776 2.27992 8.77758 2.22351 7.60283 2.22351C6.42806 2.22351 5.27788 2.27992 4.1612 2.38796C2.93243 2.50684 1.9924 3.7523 1.93689 5.26881C1.85117 7.61097 1.80603 10.0424 1.80603 12.536C1.80603 15.0297 1.85117 17.461 1.9369 19.8032C1.9924 21.3197 2.93243 22.5652 4.1612 22.6841C5.27788 22.7921 6.42806 22.8485 7.60283 22.8485C8.77758 22.8485 9.92776 22.7921 11.0444 22.6841C12.2732 22.5652 13.2132 21.3197 13.2687 19.8032" stroke="white" stroke-width="2" stroke-linecap="round"/>
<path d="M7.00679 12.6852L15.4827 12.6852" stroke="white" stroke-width="2" stroke-linecap="round" stroke-linejoin="round"/>
</svg>
