<svg width="24" height="24" viewBox="0 0 24 24" fill="none" xmlns="http://www.w3.org/2000/svg">
<path d="M8.84503 3.26219C7.6733 2.28021 5.9275 2.42136 5.03847 3.66509C4.80101 3.99729 4.51962 4.39352 4.03361 5.00148C2.36168 7.09288 2.36168 10.1212 4.04285 12.2052C5.28391 13.7436 6.58515 15.296 8.03977 16.7506C9.4944 18.2052 11.0468 19.5065 12.5852 20.7475C14.6692 22.4287 17.6975 22.4287 19.7889 20.7568C20.4375 20.2382 20.8422 19.9556 21.1857 19.7103C22.3871 18.8524 22.5554 17.1694 21.6173 16.0295C20.876 15.1287 20.0506 14.2694 19.2543 13.4305C18.6199 12.7623 17.5606 12.7186 16.8406 13.2936C16.647 13.4482 16.4066 13.6521 15.9191 14.1091C13.5268 12.6875 12.0769 11.22 10.6813 8.87129C11.1439 8.37789 11.3479 8.13676 11.5039 7.94125C12.0778 7.22186 12.0352 6.16523 11.363 5.53665C10.5438 4.77055 9.71002 3.98711 8.84503 3.26219Z" stroke="#020202" stroke-width="2" stroke-linejoin="round"/>
</svg>
